<mxfile host="app.diagrams.net" modified="2024-05-08T06:18:42.619Z" agent="Mozilla/5.0 (Windows NT 10.0; Win64; x64) AppleWebKit/537.36 (KHTML, like Gecko) Chrome/124.0.0.0 Safari/537.36" etag="85cHIE90nLQXiHJAqeZ5" version="24.3.1" type="github">
  <diagram name="Page-1" id="c7558073-3199-34d8-9f00-42111426c3f3">
    <mxGraphModel dx="1434" dy="868" grid="1" gridSize="20" guides="0" tooltips="1" connect="1" arrows="1" fold="1" page="1" pageScale="1" pageWidth="826" pageHeight="1169" background="#ffffff" math="0" shadow="0">
      <root>
        <mxCell id="0" />
        <mxCell id="1" parent="0" />
        <mxCell id="JK8PelASmx0jaLFoLUvW-97" style="edgeStyle=none;curved=1;rounded=1;orthogonalLoop=1;jettySize=auto;html=1;fontSize=12;startSize=8;endSize=8;labelBackgroundColor=none;strokeColor=#182E3E;fontColor=default;sketch=1;curveFitting=1;jiggle=2;" edge="1" parent="1" source="JK8PelASmx0jaLFoLUvW-96" target="JK8PelASmx0jaLFoLUvW-98">
          <mxGeometry relative="1" as="geometry">
            <mxPoint x="270" y="180" as="targetPoint" />
          </mxGeometry>
        </mxCell>
        <mxCell id="JK8PelASmx0jaLFoLUvW-96" value="RSS FEED TO LLM&lt;div&gt;&lt;br&gt;&lt;div&gt;&lt;div&gt;&lt;br&gt;&lt;/div&gt;&lt;/div&gt;&lt;/div&gt;" style="rounded=1;whiteSpace=wrap;html=1;labelBackgroundColor=none;fillColor=#F5AB50;strokeColor=#909090;fontColor=#1A1A1A;sketch=1;curveFitting=1;jiggle=2;" vertex="1" parent="1">
          <mxGeometry x="60" y="140" width="100" height="80" as="geometry" />
        </mxCell>
        <mxCell id="JK8PelASmx0jaLFoLUvW-99" style="edgeStyle=none;curved=1;rounded=1;orthogonalLoop=1;jettySize=auto;html=1;fontSize=12;startSize=8;endSize=8;labelBackgroundColor=none;strokeColor=#182E3E;fontColor=default;sketch=1;curveFitting=1;jiggle=2;" edge="1" parent="1" source="JK8PelASmx0jaLFoLUvW-98" target="JK8PelASmx0jaLFoLUvW-100">
          <mxGeometry relative="1" as="geometry">
            <mxPoint x="270" y="300" as="targetPoint" />
          </mxGeometry>
        </mxCell>
        <mxCell id="JK8PelASmx0jaLFoLUvW-101" style="edgeStyle=none;curved=1;rounded=1;orthogonalLoop=1;jettySize=auto;html=1;fontSize=12;startSize=8;endSize=8;labelBackgroundColor=none;strokeColor=#182E3E;fontColor=default;sketch=1;curveFitting=1;jiggle=2;" edge="1" parent="1" source="JK8PelASmx0jaLFoLUvW-98" target="JK8PelASmx0jaLFoLUvW-102">
          <mxGeometry relative="1" as="geometry">
            <mxPoint x="490" y="180" as="targetPoint" />
          </mxGeometry>
        </mxCell>
        <mxCell id="JK8PelASmx0jaLFoLUvW-108" style="edgeStyle=none;curved=1;rounded=1;orthogonalLoop=1;jettySize=auto;html=1;fontSize=12;startSize=8;endSize=8;labelBackgroundColor=none;strokeColor=#182E3E;fontColor=default;sketch=1;curveFitting=1;jiggle=2;" edge="1" parent="1" source="JK8PelASmx0jaLFoLUvW-98" target="JK8PelASmx0jaLFoLUvW-109">
          <mxGeometry relative="1" as="geometry">
            <mxPoint x="430" y="310" as="targetPoint" />
          </mxGeometry>
        </mxCell>
        <mxCell id="JK8PelASmx0jaLFoLUvW-98" value="LLM TO PARSE TEXT" style="whiteSpace=wrap;html=1;aspect=fixed;labelBackgroundColor=none;fillColor=#F5AB50;strokeColor=#909090;fontColor=#1A1A1A;rounded=1;sketch=1;curveFitting=1;jiggle=2;" vertex="1" parent="1">
          <mxGeometry x="220" y="140" width="90" height="90" as="geometry" />
        </mxCell>
        <mxCell id="JK8PelASmx0jaLFoLUvW-111" style="edgeStyle=none;curved=1;rounded=1;orthogonalLoop=1;jettySize=auto;html=1;fontSize=12;startSize=8;endSize=8;labelBackgroundColor=none;strokeColor=#182E3E;fontColor=default;sketch=1;curveFitting=1;jiggle=2;" edge="1" parent="1" source="JK8PelASmx0jaLFoLUvW-100" target="JK8PelASmx0jaLFoLUvW-112">
          <mxGeometry relative="1" as="geometry">
            <mxPoint x="270" y="420" as="targetPoint" />
          </mxGeometry>
        </mxCell>
        <mxCell id="JK8PelASmx0jaLFoLUvW-100" value="TEXT TO SPEECH" style="shape=hexagon;perimeter=hexagonPerimeter2;whiteSpace=wrap;html=1;fixedSize=1;labelBackgroundColor=none;fillColor=#F5AB50;strokeColor=#909090;fontColor=#1A1A1A;rounded=1;sketch=1;curveFitting=1;jiggle=2;" vertex="1" parent="1">
          <mxGeometry x="200" y="280" width="120" height="80" as="geometry" />
        </mxCell>
        <mxCell id="JK8PelASmx0jaLFoLUvW-103" style="edgeStyle=none;curved=1;rounded=1;orthogonalLoop=1;jettySize=auto;html=1;fontSize=12;startSize=8;endSize=8;labelBackgroundColor=none;strokeColor=#182E3E;fontColor=default;sketch=1;curveFitting=1;jiggle=2;" edge="1" parent="1" source="JK8PelASmx0jaLFoLUvW-102" target="JK8PelASmx0jaLFoLUvW-104">
          <mxGeometry relative="1" as="geometry">
            <mxPoint x="620" y="180" as="targetPoint" />
          </mxGeometry>
        </mxCell>
        <mxCell id="JK8PelASmx0jaLFoLUvW-102" value="TEXT TO PROMPT" style="rounded=1;whiteSpace=wrap;html=1;labelBackgroundColor=none;fillColor=#F5AB50;strokeColor=#909090;fontColor=#1A1A1A;sketch=1;curveFitting=1;jiggle=2;" vertex="1" parent="1">
          <mxGeometry x="400" y="140" width="180" height="80" as="geometry" />
        </mxCell>
        <mxCell id="JK8PelASmx0jaLFoLUvW-105" style="edgeStyle=none;curved=1;rounded=1;orthogonalLoop=1;jettySize=auto;html=1;fontSize=12;startSize=8;endSize=8;labelBackgroundColor=none;strokeColor=#182E3E;fontColor=default;sketch=1;curveFitting=1;jiggle=2;" edge="1" parent="1" source="JK8PelASmx0jaLFoLUvW-104" target="JK8PelASmx0jaLFoLUvW-106">
          <mxGeometry relative="1" as="geometry">
            <mxPoint x="670" y="290" as="targetPoint" />
          </mxGeometry>
        </mxCell>
        <mxCell id="JK8PelASmx0jaLFoLUvW-104" value="SD 1.5 MODEL&lt;div&gt;=/=Proteus V03&lt;/div&gt;" style="whiteSpace=wrap;html=1;aspect=fixed;labelBackgroundColor=none;fillColor=#F5AB50;strokeColor=#909090;fontColor=#1A1A1A;rounded=1;sketch=1;curveFitting=1;jiggle=2;" vertex="1" parent="1">
          <mxGeometry x="630" y="140" width="80" height="80" as="geometry" />
        </mxCell>
        <mxCell id="JK8PelASmx0jaLFoLUvW-107" style="edgeStyle=none;curved=1;rounded=1;orthogonalLoop=1;jettySize=auto;html=1;fontSize=12;startSize=8;endSize=8;entryX=1;entryY=0;entryDx=0;entryDy=0;labelBackgroundColor=none;strokeColor=#182E3E;fontColor=default;sketch=1;curveFitting=1;jiggle=2;" edge="1" parent="1" source="JK8PelASmx0jaLFoLUvW-106" target="JK8PelASmx0jaLFoLUvW-112">
          <mxGeometry relative="1" as="geometry">
            <mxPoint x="670" y="420" as="targetPoint" />
          </mxGeometry>
        </mxCell>
        <mxCell id="JK8PelASmx0jaLFoLUvW-106" value="BRANDING LORA STACK" style="rounded=1;whiteSpace=wrap;html=1;labelBackgroundColor=none;fillColor=#F5AB50;strokeColor=#909090;fontColor=#1A1A1A;sketch=1;curveFitting=1;jiggle=2;" vertex="1" parent="1">
          <mxGeometry x="610" y="300" width="120" height="60" as="geometry" />
        </mxCell>
        <mxCell id="JK8PelASmx0jaLFoLUvW-110" style="edgeStyle=none;curved=1;rounded=1;orthogonalLoop=1;jettySize=auto;html=1;fontSize=12;startSize=8;endSize=8;entryX=0.5;entryY=0;entryDx=0;entryDy=0;labelBackgroundColor=none;strokeColor=#182E3E;fontColor=default;sketch=1;curveFitting=1;jiggle=2;" edge="1" parent="1" source="JK8PelASmx0jaLFoLUvW-109" target="JK8PelASmx0jaLFoLUvW-112">
          <mxGeometry relative="1" as="geometry">
            <mxPoint x="470" y="420" as="targetPoint" />
          </mxGeometry>
        </mxCell>
        <mxCell id="JK8PelASmx0jaLFoLUvW-109" value="CAPTION GENERATOR" style="rounded=1;whiteSpace=wrap;html=1;labelBackgroundColor=none;fillColor=#F5AB50;strokeColor=#909090;fontColor=#1A1A1A;sketch=1;curveFitting=1;jiggle=2;" vertex="1" parent="1">
          <mxGeometry x="400" y="280" width="120" height="60" as="geometry" />
        </mxCell>
        <mxCell id="JK8PelASmx0jaLFoLUvW-119" style="edgeStyle=none;curved=1;rounded=1;orthogonalLoop=1;jettySize=auto;html=1;entryX=0.5;entryY=0;entryDx=0;entryDy=0;fontSize=12;startSize=8;endSize=8;labelBackgroundColor=none;strokeColor=#182E3E;fontColor=default;sketch=1;curveFitting=1;jiggle=2;" edge="1" parent="1" source="JK8PelASmx0jaLFoLUvW-112" target="JK8PelASmx0jaLFoLUvW-115">
          <mxGeometry relative="1" as="geometry" />
        </mxCell>
        <mxCell id="JK8PelASmx0jaLFoLUvW-120" style="edgeStyle=none;curved=1;rounded=1;orthogonalLoop=1;jettySize=auto;html=1;entryX=0.5;entryY=0;entryDx=0;entryDy=0;fontSize=12;startSize=8;endSize=8;labelBackgroundColor=none;strokeColor=#182E3E;fontColor=default;sketch=1;curveFitting=1;jiggle=2;" edge="1" parent="1" source="JK8PelASmx0jaLFoLUvW-112" target="JK8PelASmx0jaLFoLUvW-116">
          <mxGeometry relative="1" as="geometry" />
        </mxCell>
        <mxCell id="JK8PelASmx0jaLFoLUvW-121" style="edgeStyle=none;curved=1;rounded=1;orthogonalLoop=1;jettySize=auto;html=1;entryX=0.5;entryY=0;entryDx=0;entryDy=0;fontSize=12;startSize=8;endSize=8;labelBackgroundColor=none;strokeColor=#182E3E;fontColor=default;sketch=1;curveFitting=1;jiggle=2;" edge="1" parent="1" source="JK8PelASmx0jaLFoLUvW-112" target="JK8PelASmx0jaLFoLUvW-117">
          <mxGeometry relative="1" as="geometry" />
        </mxCell>
        <mxCell id="JK8PelASmx0jaLFoLUvW-112" value="Render Package" style="swimlane;whiteSpace=wrap;html=1;labelBackgroundColor=none;fillColor=#F5AB50;strokeColor=#909090;fontColor=#1A1A1A;rounded=1;sketch=1;curveFitting=1;jiggle=2;" vertex="1" parent="1">
          <mxGeometry x="360" y="400" width="200" height="200" as="geometry" />
        </mxCell>
        <mxCell id="JK8PelASmx0jaLFoLUvW-113" value="Control Net packages&lt;div&gt;&lt;span style=&quot;background-color: initial;&quot;&gt;Animated Diff Evolved&lt;/span&gt;&lt;/div&gt;&lt;div&gt;&lt;span style=&quot;background-color: initial;&quot;&gt;IPA Character&lt;/span&gt;&lt;/div&gt;&lt;div&gt;&lt;span style=&quot;background-color: initial;&quot;&gt;Wave 2 lipsync&lt;/span&gt;&lt;/div&gt;&lt;div&gt;&lt;span style=&quot;background-color: initial;&quot;&gt;Recombination to Video&lt;/span&gt;&lt;div&gt;Render&lt;br&gt;API Outputs&lt;/div&gt;&lt;/div&gt;" style="text;html=1;align=center;verticalAlign=middle;resizable=0;points=[];autosize=1;strokeColor=none;fillColor=none;fontSize=16;labelBackgroundColor=none;fontColor=#1A1A1A;rounded=1;sketch=1;curveFitting=1;jiggle=2;" vertex="1" parent="JK8PelASmx0jaLFoLUvW-112">
          <mxGeometry y="30" width="200" height="160" as="geometry" />
        </mxCell>
        <mxCell id="JK8PelASmx0jaLFoLUvW-123" style="edgeStyle=none;curved=1;rounded=1;orthogonalLoop=1;jettySize=auto;html=1;entryX=0.5;entryY=1.036;entryDx=0;entryDy=0;entryPerimeter=0;strokeColor=#182E3E;fontSize=12;fontColor=#1A1A1A;startSize=8;endSize=8;sketch=1;curveFitting=1;jiggle=2;" edge="1" parent="JK8PelASmx0jaLFoLUvW-112" source="JK8PelASmx0jaLFoLUvW-113" target="JK8PelASmx0jaLFoLUvW-113">
          <mxGeometry relative="1" as="geometry" />
        </mxCell>
        <mxCell id="JK8PelASmx0jaLFoLUvW-114" value="TIKTOK" style="rounded=1;whiteSpace=wrap;html=1;labelBackgroundColor=none;fillColor=#F5AB50;strokeColor=#909090;fontColor=#1A1A1A;sketch=1;curveFitting=1;jiggle=2;" vertex="1" parent="1">
          <mxGeometry x="80" y="740" width="120" height="60" as="geometry" />
        </mxCell>
        <mxCell id="JK8PelASmx0jaLFoLUvW-115" value="FACEBOOK" style="rounded=1;whiteSpace=wrap;html=1;labelBackgroundColor=none;fillColor=#F5AB50;strokeColor=#909090;fontColor=#1A1A1A;sketch=1;curveFitting=1;jiggle=2;" vertex="1" parent="1">
          <mxGeometry x="280" y="740" width="120" height="60" as="geometry" />
        </mxCell>
        <mxCell id="JK8PelASmx0jaLFoLUvW-116" value="X" style="rounded=1;whiteSpace=wrap;html=1;labelBackgroundColor=none;fillColor=#F5AB50;strokeColor=#909090;fontColor=#1A1A1A;sketch=1;curveFitting=1;jiggle=2;" vertex="1" parent="1">
          <mxGeometry x="480" y="740" width="120" height="60" as="geometry" />
        </mxCell>
        <mxCell id="JK8PelASmx0jaLFoLUvW-117" value="YTube" style="rounded=1;whiteSpace=wrap;html=1;labelBackgroundColor=none;fillColor=#F5AB50;strokeColor=#909090;fontColor=#1A1A1A;sketch=1;curveFitting=1;jiggle=2;" vertex="1" parent="1">
          <mxGeometry x="680" y="740" width="120" height="60" as="geometry" />
        </mxCell>
        <mxCell id="JK8PelASmx0jaLFoLUvW-118" style="edgeStyle=none;curved=1;rounded=1;orthogonalLoop=1;jettySize=auto;html=1;entryX=0.45;entryY=-0.017;entryDx=0;entryDy=0;entryPerimeter=0;fontSize=12;startSize=8;endSize=8;labelBackgroundColor=none;strokeColor=#182E3E;fontColor=default;sketch=1;curveFitting=1;jiggle=2;flowAnimation=0;" edge="1" parent="1" source="JK8PelASmx0jaLFoLUvW-112" target="JK8PelASmx0jaLFoLUvW-114">
          <mxGeometry relative="1" as="geometry" />
        </mxCell>
        <mxCell id="JK8PelASmx0jaLFoLUvW-122" value="24-7 News Network Process Flow for ComfyUI" style="text;html=1;align=center;verticalAlign=middle;resizable=0;points=[];autosize=1;strokeColor=none;fillColor=none;fontSize=16;labelBackgroundColor=none;fontColor=#1A1A1A;rounded=1;sketch=1;curveFitting=1;jiggle=2;" vertex="1" parent="1">
          <mxGeometry x="60" y="21" width="350" height="30" as="geometry" />
        </mxCell>
      </root>
    </mxGraphModel>
  </diagram>
</mxfile>
